# xmcd CD database file
#
# Track frame offsets:
#	150
#	23469
#	39514
#	58760
#	76595
#	92236
#	111217
#	131757
#	153051
#	171672
#	187637
#
# Disc length: 2813 seconds
#
# Revision: 1
# Processed by: cddbd v1.5.1PL0 Copyright (c) Steve Scherf et al.
# Submitted via: CDex 1.51
#
DISCID=7d0afb0b
DTITLE=Kenny Chesney - The Road And The Radio
DYEAR=2005
DGENRE=Country
TTITLE0=The Road And The Radio
TTITLE1=Living In The Fast Foward
TTITLE2=Who You'd Be Today
TTITLE3=You Save Me
TTITLE4=Summertime
TTITLE5=In A Small Town
TTITLE6=Beer In Mexico
TTITLE7=Freedom
TTITLE8=Tequila Loves Me
TTITLE9=Somebody Take Me Home
TTITLE10=Like Me
EXTD=YEAR: 2005
EXTT0=
EXTT1=
EXTT2=
EXTT3=
EXTT4=
EXTT5=
EXTT6=
EXTT7=
EXTT8=
EXTT9=
EXTT10=
PLAYORDER=
